# xmcd
#
# Track frame offsets:
#	150
#	15493
#	31324
#	44754
#	62227
#	79859
#
# Disc length: 1223 seconds
# Revision: 0
# Processed by: cddbd v1.5.2PL0 Copyright (c) Steve Scherf et al.
# Submitted via: dBpowerAMP V12.0
#
DISCID=4804c506
DTITLE=Owen Campbell - In The Shadow Of The Greats
DYEAR=2015
DGENRE=Blues
TTITLE0=Ol' 55
TTITLE1=Money
TTITLE2=Days Like This
TTITLE3=Hermosa Vision
TTITLE4=I'm On Fire
TTITLE5=Remember To Breathe
EXTD=
EXTT0=
EXTT1=
EXTT2=
EXTT3=
EXTT4=
EXTT5=
PLAYORDER=
